<?xml version="1.0" encoding="UTF-8" standalone="no"?>
<!DOCTYPE svg PUBLIC "-//W3C//DTD SVG 1.1//EN" "http://www.w3.org/Graphics/SVG/1.1/DTD/svg11.dtd">
<svg width="100%" height="100%" viewBox="0 0 512 512" version="1.1" xmlns="http://www.w3.org/2000/svg" xmlns:xlink="http://www.w3.org/1999/xlink" xml:space="preserve" xmlns:serif="http://www.serif.com/" style="fill-rule:evenodd;clip-rule:evenodd;stroke-linejoin:round;stroke-miterlimit:2;">
    <g>
        <g>
            <path d="M349.123,362.593L290.432,362.593L290.432,149.409L349.123,149.409C364.641,149.409 377.266,136.783 377.266,121.265C377.266,113.748 374.339,106.681 369.023,101.364L275.901,8.243C270.585,2.927 263.517,0 256,0C248.483,0 241.415,2.927 236.099,8.242L142.976,101.365C137.661,106.681 134.734,113.748 134.734,121.265C134.734,136.783 147.359,149.409 162.877,149.409L221.568,149.409L221.568,362.592L162.877,362.592C147.359,362.592 134.734,375.218 134.734,390.736C134.734,398.253 137.661,405.32 142.977,410.637L236.099,503.759C241.415,509.073 248.483,512 256,512C263.517,512 270.585,509.073 275.901,503.759L369.024,410.636C374.339,405.32 377.266,398.253 377.266,390.736C377.266,375.219 364.641,362.593 349.123,362.593ZM354.599,396.211L261.477,489.333C260.014,490.797 258.07,491.602 256.001,491.602C253.932,491.602 251.988,490.796 250.524,489.333L157.403,396.212C155.939,394.749 155.134,392.803 155.134,390.735C155.134,386.464 158.608,382.99 162.878,382.99L162.878,382.991L231.769,382.991C237.402,382.991 241.968,378.424 241.968,372.792L241.968,139.21C241.968,133.578 237.402,129.011 231.769,129.011L162.878,129.011C158.608,129.011 155.134,125.537 155.134,121.266C155.134,119.198 155.94,117.253 157.402,115.79L250.524,22.668C251.987,21.204 253.932,20.399 256,20.399C258.068,20.399 260.013,21.205 261.477,22.668L354.598,115.788C356.062,117.251 356.867,119.197 356.867,121.265C356.867,125.536 353.393,129.01 349.123,129.01L280.232,129.01C274.599,129.01 270.033,133.577 270.033,139.209L270.033,372.791C270.033,378.423 274.599,382.99 280.232,382.99L349.123,382.99C353.393,382.99 356.867,386.464 356.867,390.735C356.867,392.804 356.061,394.749 354.599,396.211Z" style="fill:rgb(235,235,235);fill-rule:nonzero;"/>
        </g>
    </g>
    <g>
        <g>
            <path d="M211.197,408.915L210.064,407.782C206.08,403.8 199.622,403.8 195.639,407.782C191.656,411.766 191.656,418.224 195.639,422.207L196.772,423.34C198.763,425.331 201.374,426.327 203.984,426.327C206.594,426.327 209.205,425.331 211.197,423.34C215.18,419.356 215.18,412.897 211.197,408.915Z" style="fill:rgb(247,244,244);fill-rule:nonzero;"/>
        </g>
    </g>
    <g>
        <g>
            <path d="M260.913,458.891L231.064,429.041C227.081,425.06 220.623,425.06 216.64,429.041C212.657,433.025 212.657,439.483 216.64,443.466L246.489,473.316C248.481,475.307 251.09,476.303 253.701,476.303C256.311,476.303 258.922,475.307 260.913,473.316C264.896,469.332 264.896,462.874 260.913,458.891Z" style="fill:rgb(255,252,252);fill-rule:nonzero;"/>
        </g>
    </g>
</svg>
